STARTFONT 2.1
FONT -WRI-Mathematica5Mono-Medium-R-Normal--12-120-75-75-M-60-Adobe-FontSpecific
SIZE 12 75 75
FONTBOUNDINGBOX 30 25 -1 -10
STARTPROPERTIES 16
FOUNDRY "WRI"
FAMILY_NAME "Mathematica5Mono"
WEIGHT_NAME "Medium"
SLANT "R"
SETWIDTH_NAME "Normal"
PIXEL_SIZE 12
POINT_SIZE 120
RESOLUTION_X 75
RESOLUTION_Y 75
SPACING "M"
AVERAGE_WIDTH 60
CHARSET_REGISTRY "Adobe"
CHARSET_ENCODING "FontSpecific"
FONT_DESCENT 10
FONT_ASCENT 15
DEFAULT_CHAR 32
ENDPROPERTIES
CHARS 228
STARTCHAR Villa
ENCODING 1
SWIDTH 627 0
DWIDTH 8 0
BBX 8 11 0 -2
BITMAP
02
1a
26
5a
ff
42
5a
5a
7e
28
44
ENDCHAR
STARTCHAR Kooz
ENCODING 2
SWIDTH 746 0
DWIDTH 9 0
BBX 9 11 0 -2
BITMAP
be00
4300
d500
4100
5500
4900
e280
bc80
c280
4a80
4580
ENDCHAR
STARTCHAR Andy
ENCODING 3
SWIDTH 1000 0
DWIDTH 12 0
BBX 8 9 2 0
BITMAP
10
10
12
fc
54
38
10
21
1e
ENDCHAR
STARTCHAR Spooky
ENCODING 4
SWIDTH 535 0
DWIDTH 6 0
BBX 7 8 0 0
BITMAP
04
4c
7c
46
ec
46
d4
44
ENDCHAR
STARTCHAR space
ENCODING 32
SWIDTH 263 0
DWIDTH 3 0
BBX 0 0 0 0
BITMAP
ENDCHAR
STARTCHAR BckspcKey
ENCODING 33
SWIDTH 1981 0
DWIDTH 24 0
BBX 24 10 0 -2
BITMAP
ffffff
800001
b353cd
ac54b1
b462d1
ac6191
ac5191
b3568d
800001
ffffff
ENDCHAR
STARTCHAR HomeKey
ENCODING 34
SWIDTH 1603 0
DWIDTH 19 0
BBX 19 10 0 -2
BITMAP
ffffe0
800020
a945a0
aaed20
bad5a0
aad520
aad520
a955a0
800020
ffffe0
ENDCHAR
STARTCHAR PgupKey
ENCODING 35
SWIDTH 1444 0
DWIDTH 17 0
BBX 17 10 0 -2
BITMAP
ffff80
800080
b35680
ac5580
b75680
a55480
a55480
a32480
800080
ffff80
ENDCHAR
STARTCHAR PgdwnKey
ENCODING 36
SWIDTH 1999 0
DWIDTH 24 0
BBX 24 10 0 -2
BITMAP
ffffff
800001
b364a5
ac54a5
b754b5
a554ad
a557a5
a364a5
800001
ffffff
ENDCHAR
STARTCHAR EndKey
ENCODING 37
SWIDTH 1187 0
DWIDTH 14 0
BBX 14 10 0 -2
BITMAP
fffc
8004
b4b4
a4ac
b6ac
a5ac
a4ac
b4b4
8004
fffc
ENDCHAR
STARTCHAR FilledHeart
ENCODING 38
SWIDTH 605 0
DWIDTH 7 0
BBX 7 7 0 0
BITMAP
6c
fe
fe
7c
38
10
10
ENDCHAR
STARTCHAR Euro
ENCODING 39
SWIDTH 600 0
DWIDTH 7 0
BBX 7 8 0 0
BITMAP
3a
46
82
f8
80
f0
42
3c
ENDCHAR
STARTCHAR CapitalOE
ENCODING 40
SWIDTH 600 0
DWIDTH 7 0
BBX 7 7 0 0
BITMAP
3e
52
90
9c
90
52
3e
ENDCHAR
STARTCHAR OE
ENCODING 41
SWIDTH 600 0
DWIDTH 7 0
BBX 7 6 0 0
BITMAP
6c
5a
92
9e
90
6e
ENDCHAR
STARTCHAR ABar
ENCODING 42
SWIDTH 600 0
DWIDTH 7 0
BBX 6 8 1 0
BITMAP
f8
00
70
08
78
88
98
6c
ENDCHAR
STARTCHAR ACup
ENCODING 43
SWIDTH 600 0
DWIDTH 7 0
BBX 6 8 1 0
BITMAP
88
70
70
08
78
88
98
6c
ENDCHAR
STARTCHAR CapitalABar
ENCODING 44
SWIDTH 600 0
DWIDTH 7 0
BBX 7 10 0 0
BITMAP
7c
00
70
10
10
28
28
7c
44
c6
ENDCHAR
STARTCHAR CapitalACup
ENCODING 45
SWIDTH 600 0
DWIDTH 7 0
BBX 7 10 0 0
BITMAP
44
38
70
10
10
28
28
7c
44
c6
ENDCHAR
STARTCHAR CAcute
ENCODING 46
SWIDTH 600 0
DWIDTH 7 0
BBX 6 8 1 0
BITMAP
18
20
34
4c
80
80
4c
30
ENDCHAR
STARTCHAR CHacek
ENCODING 47
SWIDTH 600 0
DWIDTH 7 0
BBX 6 8 1 0
BITMAP
48
30
34
4c
80
80
4c
30
ENDCHAR
STARTCHAR ScriptZero
ENCODING 48
SWIDTH 588 0
DWIDTH 7 0
BBX 5 7 1 0
BITMAP
30
28
48
88
88
50
60
ENDCHAR
STARTCHAR ScriptOne
ENCODING 49
SWIDTH 600 0
DWIDTH 7 0
BBX 4 7 2 0
BITMAP
60
10
20
20
20
20
f0
ENDCHAR
STARTCHAR ScriptTwo
ENCODING 50
SWIDTH 588 0
DWIDTH 7 0
BBX 5 7 1 0
BITMAP
30
48
08
10
60
80
f0
ENDCHAR
STARTCHAR ScriptThree
ENCODING 51
SWIDTH 600 0
DWIDTH 7 0
BBX 5 7 1 0
BITMAP
30
28
08
30
08
90
60
ENDCHAR
STARTCHAR ScriptFour
ENCODING 52
SWIDTH 600 0
DWIDTH 7 0
BBX 6 7 1 0
BITMAP
0c
14
24
48
f8
08
38
ENDCHAR
STARTCHAR ScriptFive
ENCODING 53
SWIDTH 600 0
DWIDTH 7 0
BBX 5 7 1 0
BITMAP
78
40
70
48
08
90
60
ENDCHAR
STARTCHAR ScriptSix
ENCODING 54
SWIDTH 548 0
DWIDTH 7 0
BBX 5 7 1 0
BITMAP
38
20
40
40
f0
90
60
ENDCHAR
STARTCHAR ScriptSeven
ENCODING 55
SWIDTH 559 0
DWIDTH 7 0
BBX 5 7 1 0
BITMAP
f8
08
10
10
20
20
40
ENDCHAR
STARTCHAR ScriptEight
ENCODING 56
SWIDTH 548 0
DWIDTH 7 0
BBX 5 7 1 0
BITMAP
30
28
50
20
50
90
60
ENDCHAR
STARTCHAR ScriptNine
ENCODING 57
SWIDTH 548 0
DWIDTH 7 0
BBX 5 7 1 0
BITMAP
30
28
28
38
10
10
e0
ENDCHAR
STARTCHAR ODoubleAcute
ENCODING 58
SWIDTH 600 0
DWIDTH 7 0
BBX 6 8 1 0
BITMAP
28
50
30
48
84
84
48
30
ENDCHAR
STARTCHAR CapitalODoubleAcute
ENCODING 59
SWIDTH 600 0
DWIDTH 7 0
BBX 6 10 1 0
BITMAP
28
50
30
48
84
84
84
84
48
30
ENDCHAR
STARTCHAR SHacek
ENCODING 60
SWIDTH 600 0
DWIDTH 7 0
BBX 5 8 1 0
BITMAP
50
20
30
48
60
10
88
70
ENDCHAR
STARTCHAR CapitalSHacek
ENCODING 61
SWIDTH 600 0
DWIDTH 7 0
BBX 5 10 1 0
BITMAP
50
20
70
88
80
c0
30
08
88
f0
ENDCHAR
STARTCHAR UDoubleAcute
ENCODING 62
SWIDTH 600 0
DWIDTH 7 0
BBX 7 8 0 0
BITMAP
14
28
cc
44
44
44
4c
36
ENDCHAR
STARTCHAR CapitalUDoubleAcute
ENCODING 63
SWIDTH 600 0
DWIDTH 7 0
BBX 8 10 0 0
BITMAP
14
28
e7
42
42
42
42
42
42
3c
ENDCHAR
STARTCHAR HSlash
ENCODING 64
SWIDTH 600 0
DWIDTH 7 0
BBX 6 8 0 0
BITMAP
30
10
7c
28
34
24
24
ec
ENDCHAR
STARTCHAR ScriptCapA
ENCODING 65
SWIDTH 600 0
DWIDTH 7 0
BBX 8 8 0 0
BITMAP
3f
4a
8a
1e
12
22
a2
41
ENDCHAR
STARTCHAR ScriptCapB
ENCODING 66
SWIDTH 600 0
DWIDTH 7 0
BBX 7 8 0 0
BITMAP
3c
52
92
1c
22
22
42
fc
ENDCHAR
STARTCHAR ScriptCapC
ENCODING 67
SWIDTH 600 0
DWIDTH 7 0
BBX 7 8 0 0
BITMAP
3c
42
80
80
80
80
84
78
ENDCHAR
STARTCHAR ScriptCapD
ENCODING 68
SWIDTH 600 0
DWIDTH 7 0
BBX 7 8 0 0
BITMAP
38
54
92
22
22
22
44
f8
ENDCHAR
STARTCHAR ScriptCapE
ENCODING 69
SWIDTH 600 0
DWIDTH 7 0
BBX 7 8 0 0
BITMAP
3c
42
40
78
80
82
82
7c
ENDCHAR
STARTCHAR ScriptCapF
ENCODING 70
SWIDTH 590 0
DWIDTH 7 0
BBX 8 9 0 -1
BITMAP
3f
60
a0
38
20
40
40
40
80
ENDCHAR
STARTCHAR ScriptCapG
ENCODING 71
SWIDTH 600 0
DWIDTH 7 0
BBX 7 10 0 -2
BITMAP
1c
22
40
80
8e
84
84
78
08
70
ENDCHAR
STARTCHAR ScriptCapH
ENCODING 72
SWIDTH 700 0
DWIDTH 8 0
BBX 9 8 0 0
BITMAP
3880
4900
9100
1f00
1200
2200
2200
4100
ENDCHAR
STARTCHAR ScriptCapI
ENCODING 73
SWIDTH 600 0
DWIDTH 7 0
BBX 7 8 0 0
BITMAP
1e
08
08
10
10
20
20
f0
ENDCHAR
STARTCHAR ScriptCapJ
ENCODING 74
SWIDTH 600 0
DWIDTH 7 0
BBX 8 10 0 -2
BITMAP
1f
24
44
04
08
08
08
10
90
60
ENDCHAR
STARTCHAR ScriptCapK
ENCODING 75
SWIDTH 678 0
DWIDTH 8 0
BBX 9 9 0 -1
BITMAP
3880
4900
8a00
1400
1800
2800
2400
4200
8000
ENDCHAR
STARTCHAR ScriptCapL
ENCODING 76
SWIDTH 638 0
DWIDTH 8 0
BBX 8 9 0 -1
BITMAP
0c
12
10
10
20
20
20
c1
3e
ENDCHAR
STARTCHAR ScriptCapM
ENCODING 77
SWIDTH 840 0
DWIDTH 10 0
BBX 10 9 0 -1
BITMAP
1040
10c0
10c0
2940
2a40
2a40
4440
4440
8000
ENDCHAR
STARTCHAR ScriptCapN
ENCODING 78
SWIDTH 662 0
DWIDTH 8 0
BBX 9 8 -1 0
BITMAP
1080
1080
1080
2900
2900
2500
4200
8200
ENDCHAR
STARTCHAR ScriptCapO
ENCODING 79
SWIDTH 600 0
DWIDTH 7 0
BBX 6 8 0 0
BITMAP
38
44
84
84
84
84
88
70
ENDCHAR
STARTCHAR ScriptCapP
ENCODING 80
SWIDTH 600 0
DWIDTH 7 0
BBX 7 8 0 0
BITMAP
3c
52
92
3c
20
40
40
80
ENDCHAR
STARTCHAR ScriptCapQ
ENCODING 81
SWIDTH 600 0
DWIDTH 7 0
BBX 7 9 0 -1
BITMAP
38
44
84
84
84
a4
98
72
0c
ENDCHAR
STARTCHAR ScriptCapR
ENCODING 82
SWIDTH 600 0
DWIDTH 7 0
BBX 7 8 0 0
BITMAP
3c
52
92
3c
30
48
44
82
ENDCHAR
STARTCHAR ScriptCapS
ENCODING 83
SWIDTH 600 0
DWIDTH 7 0
BBX 7 8 0 0
BITMAP
1c
22
20
18
04
04
84
78
ENDCHAR
STARTCHAR ScriptCapT
ENCODING 84
SWIDTH 626 0
DWIDTH 8 0
BBX 9 8 0 0
BITMAP
3f80
4800
8800
1000
1000
2000
2000
4000
ENDCHAR
STARTCHAR ScriptCapU
ENCODING 85
SWIDTH 728 0
DWIDTH 9 0
BBX 9 8 0 0
BITMAP
3880
5080
9100
1100
2100
2200
2500
1900
ENDCHAR
STARTCHAR ScriptCapV
ENCODING 86
SWIDTH 714 0
DWIDTH 9 0
BBX 9 8 0 0
BITMAP
3880
4880
8900
0900
0a00
0a00
0c00
0800
ENDCHAR
STARTCHAR ScriptCapW
ENCODING 87
SWIDTH 983 0
DWIDTH 12 0
BBX 12 8 0 0
BITMAP
3810
4910
8920
0920
0b40
0d40
0980
1100
ENDCHAR
STARTCHAR ScriptCapX
ENCODING 88
SWIDTH 600 0
DWIDTH 7 0
BBX 7 8 0 0
BITMAP
42
22
14
18
30
50
88
88
ENDCHAR
STARTCHAR ScriptCapY
ENCODING 89
SWIDTH 600 0
DWIDTH 7 0
BBX 7 9 0 -1
BITMAP
42
22
24
2c
34
24
08
88
70
ENDCHAR
STARTCHAR ScriptCapZ
ENCODING 90
SWIDTH 658 0
DWIDTH 8 0
BBX 9 9 0 -1
BITMAP
3f80
4100
8200
0400
0800
1000
2000
c100
3e00
ENDCHAR
STARTCHAR RightTriangleLeft
ENCODING 91
SWIDTH 600 0
DWIDTH 7 0
BBX 5 7 1 0
BITMAP
08
08
18
28
28
48
f8
ENDCHAR
STARTCHAR RightTriangleRight
ENCODING 92
SWIDTH 600 0
DWIDTH 7 0
BBX 5 7 2 0
BITMAP
80
80
c0
a0
a0
90
f8
ENDCHAR
STARTCHAR DoubleRightTriangle
ENCODING 93
SWIDTH 600 0
DWIDTH 7 0
BBX 7 7 0 0
BITMAP
28
28
6c
6c
aa
aa
ee
ENDCHAR
STARTCHAR Female
ENCODING 94
SWIDTH 600 0
DWIDTH 7 0
BBX 5 7 1 0
BITMAP
70
88
88
50
20
70
20
ENDCHAR
STARTCHAR Male
ENCODING 95
SWIDTH 600 0
DWIDTH 7 0
BBX 6 7 1 0
BITMAP
04
04
68
98
88
88
70
ENDCHAR
STARTCHAR NearlyEquals
ENCODING 96
SWIDTH 600 0
DWIDTH 7 0
BBX 5 7 1 -1
BITMAP
40
00
f8
00
f8
00
10
ENDCHAR
STARTCHAR ScriptA
ENCODING 97
SWIDTH 432 0
DWIDTH 5 0
BBX 5 6 0 0
BITMAP
70
90
90
90
a8
d0
ENDCHAR
STARTCHAR ScriptB
ENCODING 98
SWIDTH 444 0
DWIDTH 5 0
BBX 5 8 0 0
BITMAP
40
40
70
48
48
88
90
e0
ENDCHAR
STARTCHAR ScriptC
ENCODING 99
SWIDTH 384 0
DWIDTH 5 0
BBX 5 6 0 0
BITMAP
30
48
80
80
80
70
ENDCHAR
STARTCHAR ScriptD
ENCODING 100
SWIDTH 507 0
DWIDTH 6 0
BBX 6 8 0 0
BITMAP
04
04
38
48
88
88
90
68
ENDCHAR
STARTCHAR ScriptE
ENCODING 101
SWIDTH 365 0
DWIDTH 4 0
BBX 5 6 0 0
BITMAP
30
48
90
e0
80
70
ENDCHAR
STARTCHAR ScriptF
ENCODING 102
SWIDTH 476 0
DWIDTH 6 0
BBX 6 9 0 -1
BITMAP
1c
20
20
f0
40
40
40
80
80
ENDCHAR
STARTCHAR ScriptG
ENCODING 103
SWIDTH 489 0
DWIDTH 6 0
BBX 6 8 0 -2
BITMAP
1c
24
44
48
58
28
10
e0
ENDCHAR
STARTCHAR ScriptH
ENCODING 104
SWIDTH 421 0
DWIDTH 5 0
BBX 5 8 0 0
BITMAP
40
40
50
68
88
90
90
90
ENDCHAR
STARTCHAR ScriptI
ENCODING 105
SWIDTH 222 0
DWIDTH 3 0
BBX 3 7 0 0
BITMAP
20
00
40
40
80
80
80
ENDCHAR
STARTCHAR ScriptJ
ENCODING 106
SWIDTH 440 0
DWIDTH 5 0
BBX 5 9 0 -2
BITMAP
08
00
10
10
10
20
20
20
c0
ENDCHAR
STARTCHAR ScriptK
ENCODING 107
SWIDTH 396 0
DWIDTH 5 0
BBX 5 8 0 0
BITMAP
20
20
20
48
70
40
a0
90
ENDCHAR
STARTCHAR ScriptL
ENCODING 108
SWIDTH 221 0
DWIDTH 3 0
BBX 2 8 0 0
BITMAP
40
40
40
40
80
80
80
80
ENDCHAR
STARTCHAR ScriptM
ENCODING 109
SWIDTH 665 0
DWIDTH 8 0
BBX 8 6 0 0
BITMAP
b2
4d
49
49
92
92
ENDCHAR
STARTCHAR ScriptN
ENCODING 110
SWIDTH 419 0
DWIDTH 5 0
BBX 5 6 0 0
BITMAP
b0
48
48
48
90
90
ENDCHAR
STARTCHAR ScriptO
ENCODING 111
SWIDTH 398 0
DWIDTH 5 0
BBX 5 6 0 0
BITMAP
30
48
88
88
90
60
ENDCHAR
STARTCHAR ScriptP
ENCODING 112
SWIDTH 467 0
DWIDTH 6 0
BBX 6 8 0 -2
BITMAP
58
64
44
44
88
f0
80
80
ENDCHAR
STARTCHAR ScriptQ
ENCODING 113
SWIDTH 442 0
DWIDTH 5 0
BBX 6 8 0 -2
BITMAP
34
48
88
88
b0
50
10
10
ENDCHAR
STARTCHAR ScriptR
ENCODING 114
SWIDTH 368 0
DWIDTH 4 0
BBX 4 6 0 0
BITMAP
b0
40
40
80
80
80
ENDCHAR
STARTCHAR ScriptS
ENCODING 115
SWIDTH 428 0
DWIDTH 5 0
BBX 5 6 0 0
BITMAP
70
88
40
30
88
70
ENDCHAR
STARTCHAR ScriptT
ENCODING 116
SWIDTH 267 0
DWIDTH 3 0
BBX 3 8 0 0
BITMAP
40
40
40
e0
40
80
80
60
ENDCHAR
STARTCHAR ScriptU
ENCODING 117
SWIDTH 423 0
DWIDTH 5 0
BBX 5 6 0 0
BITMAP
88
90
90
90
90
68
ENDCHAR
STARTCHAR ScriptV
ENCODING 118
SWIDTH 366 0
DWIDTH 4 0
BBX 4 6 0 0
BITMAP
90
90
a0
a0
40
40
ENDCHAR
STARTCHAR ScriptW
ENCODING 119
SWIDTH 582 0
DWIDTH 7 0
BBX 7 6 0 0
BITMAP
92
92
92
a4
d8
90
ENDCHAR
STARTCHAR ScriptX
ENCODING 120
SWIDTH 494 0
DWIDTH 6 0
BBX 6 6 0 0
BITMAP
44
28
10
30
48
84
ENDCHAR
STARTCHAR ScriptY
ENCODING 121
SWIDTH 455 0
DWIDTH 5 0
BBX 5 8 0 -2
BITMAP
48
48
48
48
58
28
10
e0
ENDCHAR
STARTCHAR ScriptZ
ENCODING 122
SWIDTH 471 0
DWIDTH 6 0
BBX 6 6 0 0
BITMAP
7c
04
08
30
40
fc
ENDCHAR
STARTCHAR ScriptAltL
ENCODING 123
SWIDTH 385 0
DWIDTH 5 0
BBX 5 8 0 0
BITMAP
10
28
48
50
60
c0
40
40
ENDCHAR
STARTCHAR LogicalNand
ENCODING 124
SWIDTH 600 0
DWIDTH 7 0
BBX 7 7 0 0
BITMAP
7c
00
38
28
44
44
82
ENDCHAR
STARTCHAR Nand2
ENCODING 125
SWIDTH 741 0
DWIDTH 9 0
BBX 9 10 0 -2
BITMAP
7f00
0000
3e00
2200
2200
4100
4100
4100
8080
8080
ENDCHAR
STARTCHAR Nand3
ENCODING 126
SWIDTH 1215 0
DWIDTH 15 0
BBX 13 19 1 -6
BITMAP
fff8
0000
0000
0000
0f80
1040
1040
1040
1040
2020
2020
2020
4010
4010
4010
4010
8008
8008
8008
ENDCHAR
STARTCHAR DEL
ENCODING 127
SWIDTH 263 0
DWIDTH 3 0
BBX 0 0 0 0
BITMAP
ENDCHAR
STARTCHAR LogicalNor
ENCODING 128
SWIDTH 600 0
DWIDTH 7 0
BBX 7 7 0 0
BITMAP
7c
00
82
44
44
28
38
ENDCHAR
STARTCHAR Nor2
ENCODING 129
SWIDTH 741 0
DWIDTH 9 0
BBX 9 11 0 -3
BITMAP
7f00
0000
8080
8080
4100
4100
4100
2200
2200
2200
1c00
ENDCHAR
STARTCHAR Nor3
ENCODING 130
SWIDTH 1215 0
DWIDTH 15 0
BBX 13 18 1 -6
BITMAP
fff8
0000
0000
0000
8008
8008
8008
4010
4010
4010
2020
2020
2020
1040
1040
1040
0880
0f80
ENDCHAR
STARTCHAR LogicalXor
ENCODING 131
SWIDTH 600 0
DWIDTH 7 0
BBX 7 7 0 0
BITMAP
82
44
44
28
38
00
7c
ENDCHAR
STARTCHAR Xor2
ENCODING 132
SWIDTH 741 0
DWIDTH 9 0
BBX 8 12 1 -3
BITMAP
81
81
81
42
42
42
24
24
3c
00
00
ff
ENDCHAR
STARTCHAR Xor3
ENCODING 133
SWIDTH 1215 0
DWIDTH 15 0
BBX 13 18 1 -6
BITMAP
8008
8008
8008
4010
4010
4010
2020
2020
2020
1040
1040
1040
0880
0f80
0000
0000
0000
fff8
ENDCHAR
STARTCHAR ConstantC
ENCODING 134
SWIDTH 600 0
DWIDTH 7 0
BBX 5 6 1 0
BITMAP
70
a8
a8
a0
a0
78
ENDCHAR
STARTCHAR LongEqual
ENCODING 135
SWIDTH 798 0
DWIDTH 10 0
BBX 7 3 1 1
BITMAP
fe
00
fe
ENDCHAR
STARTCHAR Diffd2
ENCODING 136
SWIDTH 600 0
DWIDTH 7 0
BBX 6 8 2 0
BITMAP
1c
04
64
98
88
88
90
f8
ENDCHAR
STARTCHAR Expe2
ENCODING 137
SWIDTH 600 0
DWIDTH 7 0
BBX 6 6 2 0
BITMAP
30
48
84
f8
88
70
ENDCHAR
STARTCHAR Imagi2
ENCODING 138
SWIDTH 600 0
DWIDTH 7 0
BBX 5 7 1 0
BITMAP
10
70
10
10
10
20
f8
ENDCHAR
STARTCHAR Imagj2
ENCODING 139
SWIDTH 600 0
DWIDTH 7 0
BBX 6 9 0 -2
BITMAP
04
3c
04
04
04
08
08
18
f0
ENDCHAR
STARTCHAR CapitalCAcute
ENCODING 140
SWIDTH 600 0
DWIDTH 7 0
BBX 6 9 1 0
BITMAP
10
34
4c
84
80
80
80
44
38
ENDCHAR
STARTCHAR CapitalCHacek
ENCODING 141
SWIDTH 600 0
DWIDTH 7 0
BBX 6 10 1 0
BITMAP
28
10
34
4c
84
80
80
80
44
38
ENDCHAR
STARTCHAR EBar
ENCODING 142
SWIDTH 600 0
DWIDTH 7 0
BBX 6 7 1 0
BITMAP
78
30
48
84
fc
84
78
ENDCHAR
STARTCHAR ECup
ENCODING 143
SWIDTH 600 0
DWIDTH 7 0
BBX 6 7 1 0
BITMAP
30
30
48
84
fc
84
78
ENDCHAR
STARTCHAR CapitalEBar
ENCODING 144
SWIDTH 600 0
DWIDTH 7 0
BBX 6 8 1 0
BITMAP
78
fc
44
50
70
50
44
fc
ENDCHAR
STARTCHAR CapitalECup
ENCODING 145
SWIDTH 600 0
DWIDTH 7 0
BBX 6 9 1 0
BITMAP
78
00
fc
44
50
70
50
44
fc
ENDCHAR
STARTCHAR ICup
ENCODING 146
SWIDTH 600 0
DWIDTH 7 0
BBX 5 7 1 0
BITMAP
70
e0
20
20
20
20
f8
ENDCHAR
STARTCHAR CapitalICup
ENCODING 147
SWIDTH 600 0
DWIDTH 7 0
BBX 5 9 1 0
BITMAP
58
20
f8
20
20
20
20
20
f8
ENDCHAR
STARTCHAR LSlash
ENCODING 148
SWIDTH 600 0
DWIDTH 7 0
BBX 5 8 1 0
BITMAP
e0
20
20
38
60
a0
20
f8
ENDCHAR
STARTCHAR CapitalLSlash
ENCODING 149
SWIDTH 600 0
DWIDTH 7 0
BBX 7 7 0 0
BITMAP
f0
20
28
70
a2
22
fe
ENDCHAR
STARTCHAR Mercury
ENCODING 150
SWIDTH 600 0
DWIDTH 7 0
BBX 4 7 2 0
BITMAP
90
60
90
90
60
f0
60
ENDCHAR
STARTCHAR Venus
ENCODING 151
SWIDTH 600 0
DWIDTH 7 0
BBX 5 7 1 0
BITMAP
70
88
88
88
70
70
20
ENDCHAR
STARTCHAR Earth
ENCODING 152
SWIDTH 600 0
DWIDTH 7 0
BBX 5 7 1 0
BITMAP
20
70
70
88
88
88
70
ENDCHAR
STARTCHAR Mars
ENCODING 153
SWIDTH 600 0
DWIDTH 7 0
BBX 6 6 1 0
BITMAP
0c
6c
90
88
88
70
ENDCHAR
STARTCHAR Jupiter
ENCODING 154
SWIDTH 600 0
DWIDTH 7 0
BBX 7 8 0 -1
BITMAP
22
52
8a
8a
0a
12
fe
02
ENDCHAR
STARTCHAR Saturn
ENCODING 155
SWIDTH 600 0
DWIDTH 7 0
BBX 5 7 1 0
BITMAP
40
e0
70
48
48
48
48
ENDCHAR
STARTCHAR Uranus
ENCODING 156
SWIDTH 600 0
DWIDTH 7 0
BBX 7 7 0 0
BITMAP
d6
54
7c
54
d6
28
10
ENDCHAR
STARTCHAR Neptune
ENCODING 157
SWIDTH 600 0
DWIDTH 7 0
BBX 7 8 0 -1
BITMAP
38
54
fe
54
54
38
38
10
ENDCHAR
STARTCHAR Pluto
ENCODING 158
SWIDTH 600 0
DWIDTH 7 0
BBX 5 8 1 -1
BITMAP
f0
88
88
88
f0
80
80
f8
ENDCHAR
STARTCHAR udieresis
ENCODING 159
SWIDTH 600 0
DWIDTH 7 0
BBX 7 7 0 0
BITMAP
38
44
82
92
82
44
38
ENDCHAR
STARTCHAR FirstPage
ENCODING 160
SWIDTH 600 0
DWIDTH 7 0
BBX 5 6 1 0
BITMAP
88
98
b8
b8
98
88
ENDCHAR
STARTCHAR LastPage
ENCODING 161
SWIDTH 600 0
DWIDTH 7 0
BBX 5 6 1 0
BITMAP
88
c8
e8
e8
c8
88
ENDCHAR
STARTCHAR SolidLeftTriangle
ENCODING 162
SWIDTH 600 0
DWIDTH 7 0
BBX 7 7 0 0
BITMAP
02
0e
3e
fe
3e
0e
02
ENDCHAR
STARTCHAR SolidRightTriangle
ENCODING 163
SWIDTH 600 0
DWIDTH 7 0
BBX 7 7 0 0
BITMAP
80
e0
f8
fe
f8
e0
80
ENDCHAR
STARTCHAR QuarterNote
ENCODING 164
SWIDTH 600 0
DWIDTH 7 0
BBX 3 7 2 0
BITMAP
20
20
20
20
20
e0
c0
ENDCHAR
STARTCHAR EighthNote
ENCODING 165
SWIDTH 600 0
DWIDTH 7 0
BBX 6 7 1 0
BITMAP
30
28
24
20
20
e0
c0
ENDCHAR
STARTCHAR BeamedEighthNote
ENCODING 166
SWIDTH 700 0
DWIDTH 8 0
BBX 7 7 1 0
BITMAP
3e
22
22
22
22
ee
ee
ENDCHAR
STARTCHAR BeamedSixteenthNote
ENCODING 167
SWIDTH 700 0
DWIDTH 8 0
BBX 7 7 1 0
BITMAP
3e
22
3e
22
22
ee
ee
ENDCHAR
STARTCHAR EntityStart
ENCODING 168
SWIDTH 700 0
DWIDTH 8 0
BBX 8 10 0 -2
BITMAP
ff
82
9a
a2
aa
da
ca
be
82
ff
ENDCHAR
STARTCHAR EntityEnd
ENCODING 169
SWIDTH 700 0
DWIDTH 8 0
BBX 8 10 0 -2
BITMAP
ff
21
21
21
25
21
21
25
29
ff
ENDCHAR
STARTCHAR trademark
ENCODING 170
SWIDTH 600 0
DWIDTH 7 0
BBX 6 7 2 1
BITMAP
04
08
08
10
a0
60
40
ENDCHAR
STARTCHAR acute
ENCODING 171
SWIDTH 600 0
DWIDTH 7 0
BBX 8 8 0 0
BITMAP
01
fe
86
8a
aa
92
82
fe
ENDCHAR
STARTCHAR dieresis
ENCODING 172
SWIDTH 364 0
DWIDTH 4 0
BBX 3 5 1 4
BITMAP
e0
40
40
40
40
ENDCHAR
STARTCHAR notequal
ENCODING 173
SWIDTH 364 0
DWIDTH 4 0
BBX 4 4 0 4
BITMAP
40
f0
f0
40
ENDCHAR
STARTCHAR AE
ENCODING 174
SWIDTH 364 0
DWIDTH 4 0
BBX 3 4 1 4
BITMAP
a0
e0
a0
a0
ENDCHAR
STARTCHAR Oslash
ENCODING 175
SWIDTH 600 0
DWIDTH 7 0
BBX 3 8 3 0
BITMAP
e0
80
80
80
80
80
80
80
ENDCHAR
STARTCHAR infinity
ENCODING 176
SWIDTH 600 0
DWIDTH 7 0
BBX 2 9 2 -2
BITMAP
40
40
40
c0
80
c0
40
40
40
ENDCHAR
STARTCHAR plusminus
ENCODING 177
SWIDTH 600 0
DWIDTH 7 0
BBX 3 8 3 0
BITMAP
80
80
80
80
80
80
80
e0
ENDCHAR
STARTCHAR lessequal
ENCODING 178
SWIDTH 600 0
DWIDTH 7 0
BBX 1 4 3 0
BITMAP
80
80
80
80
ENDCHAR
STARTCHAR greaterequal
ENCODING 179
SWIDTH 600 0
DWIDTH 7 0
BBX 3 9 2 -2
BITMAP
60
40
40
c0
80
c0
40
40
60
ENDCHAR
STARTCHAR yen
ENCODING 180
SWIDTH 600 0
DWIDTH 7 0
BBX 3 15 2 -5
BITMAP
60
40
40
40
40
40
c0
80
c0
40
40
40
40
40
60
ENDCHAR
STARTCHAR mu
ENCODING 181
SWIDTH 600 0
DWIDTH 7 0
BBX 4 21 2 -8
BITMAP
70
40
40
40
40
40
40
40
40
c0
80
c0
40
40
40
40
40
40
40
40
70
ENDCHAR
STARTCHAR partialdiff
ENCODING 182
SWIDTH 600 0
DWIDTH 7 0
BBX 4 25 2 -10
BITMAP
70
40
40
40
40
40
40
40
40
40
40
c0
80
c0
40
40
40
40
40
40
40
40
40
40
70
ENDCHAR
STARTCHAR summation
ENCODING 183
SWIDTH 720 0
DWIDTH 9 0
BBX 8 5 0 0
BITMAP
20
40
ed
40
20
ENDCHAR
STARTCHAR product
ENCODING 184
SWIDTH 600 0
DWIDTH 7 0
BBX 6 8 1 0
BITMAP
20
78
ac
00
20
20
00
20
ENDCHAR
STARTCHAR pi
ENCODING 185
SWIDTH 720 0
DWIDTH 9 0
BBX 8 5 0 0
BITMAP
06
03
b7
03
06
ENDCHAR
STARTCHAR integral
ENCODING 186
SWIDTH 600 0
DWIDTH 7 0
BBX 6 8 1 0
BITMAP
20
00
20
20
00
ac
78
20
ENDCHAR
STARTCHAR ordfeminine
ENCODING 187
SWIDTH 900 0
DWIDTH 11 0
BBX 9 4 1 1
BITMAP
ff80
c980
8080
ff80
ENDCHAR
STARTCHAR ordmasculine
ENCODING 188
SWIDTH 900 0
DWIDTH 11 0
BBX 5 10 3 -2
BITMAP
f8
88
a8
88
a8
88
88
a8
88
f8
ENDCHAR
STARTCHAR Omega
ENCODING 189
SWIDTH 900 0
DWIDTH 11 0
BBX 9 10 1 -2
BITMAP
a000
9000
f800
4400
2e00
1100
1b80
0c00
0600
0380
ENDCHAR
STARTCHAR ae
ENCODING 190
SWIDTH 364 0
DWIDTH 4 0
BBX 3 5 0 4
BITMAP
40
40
e0
40
40
ENDCHAR
STARTCHAR oslash
ENCODING 191
SWIDTH 263 0
DWIDTH 3 0
BBX 0 0 0 0
BITMAP
ENDCHAR
STARTCHAR questiondown
ENCODING 192
SWIDTH 263 0
DWIDTH 3 0
BBX 0 0 0 0
BITMAP
ENDCHAR
STARTCHAR exclamdown
ENCODING 193
SWIDTH 263 0
DWIDTH 3 0
BBX 0 0 0 0
BITMAP
ENDCHAR
STARTCHAR logicalnot
ENCODING 194
SWIDTH 263 0
DWIDTH 3 0
BBX 0 0 0 0
BITMAP
ENDCHAR
STARTCHAR radical
ENCODING 195
SWIDTH 263 0
DWIDTH 3 0
BBX 0 0 0 0
BITMAP
ENDCHAR
STARTCHAR florin
ENCODING 196
SWIDTH 263 0
DWIDTH 3 0
BBX 0 0 0 0
BITMAP
ENDCHAR
STARTCHAR approxequal
ENCODING 197
SWIDTH 263 0
DWIDTH 3 0
BBX 0 0 0 0
BITMAP
ENDCHAR
STARTCHAR Delta
ENCODING 198
SWIDTH 263 0
DWIDTH 3 0
BBX 0 0 0 0
BITMAP
ENDCHAR
STARTCHAR guillemotleft
ENCODING 199
SWIDTH 263 0
DWIDTH 3 0
BBX 0 0 0 0
BITMAP
ENDCHAR
STARTCHAR guillemotright
ENCODING 200
SWIDTH 263 0
DWIDTH 3 0
BBX 0 0 0 0
BITMAP
ENDCHAR
STARTCHAR ellipsis
ENCODING 201
SWIDTH 263 0
DWIDTH 3 0
BBX 0 0 0 0
BITMAP
ENDCHAR
STARTCHAR nbspace
ENCODING 202
SWIDTH 263 0
DWIDTH 3 0
BBX 0 0 0 0
BITMAP
ENDCHAR
STARTCHAR Agrave
ENCODING 203
SWIDTH 263 0
DWIDTH 3 0
BBX 0 0 0 0
BITMAP
ENDCHAR
STARTCHAR Atilde
ENCODING 204
SWIDTH 263 0
DWIDTH 3 0
BBX 0 0 0 0
BITMAP
ENDCHAR
STARTCHAR Otilde
ENCODING 205
SWIDTH 263 0
DWIDTH 3 0
BBX 0 0 0 0
BITMAP
ENDCHAR
STARTCHAR parenright
ENCODING 206
SWIDTH 263 0
DWIDTH 3 0
BBX 0 0 0 0
BITMAP
ENDCHAR
STARTCHAR oe
ENCODING 207
SWIDTH 263 0
DWIDTH 3 0
BBX 0 0 0 0
BITMAP
ENDCHAR
STARTCHAR endash
ENCODING 208
SWIDTH 263 0
DWIDTH 3 0
BBX 0 0 0 0
BITMAP
ENDCHAR
STARTCHAR emdash
ENCODING 209
SWIDTH 263 0
DWIDTH 3 0
BBX 0 0 0 0
BITMAP
ENDCHAR
STARTCHAR quotedblleft
ENCODING 210
SWIDTH 263 0
DWIDTH 3 0
BBX 0 0 0 0
BITMAP
ENDCHAR
STARTCHAR quotedblright
ENCODING 211
SWIDTH 263 0
DWIDTH 3 0
BBX 0 0 0 0
BITMAP
ENDCHAR
STARTCHAR quoteleft
ENCODING 212
SWIDTH 263 0
DWIDTH 3 0
BBX 0 0 0 0
BITMAP
ENDCHAR
STARTCHAR quoteright
ENCODING 213
SWIDTH 263 0
DWIDTH 3 0
BBX 0 0 0 0
BITMAP
ENDCHAR
STARTCHAR divide
ENCODING 214
SWIDTH 263 0
DWIDTH 3 0
BBX 0 0 0 0
BITMAP
ENDCHAR
STARTCHAR lozenge
ENCODING 215
SWIDTH 263 0
DWIDTH 3 0
BBX 0 0 0 0
BITMAP
ENDCHAR
STARTCHAR ydieresis
ENCODING 216
SWIDTH 263 0
DWIDTH 3 0
BBX 0 0 0 0
BITMAP
ENDCHAR
STARTCHAR Ydieresis
ENCODING 217
SWIDTH 263 0
DWIDTH 3 0
BBX 0 0 0 0
BITMAP
ENDCHAR
STARTCHAR fraction
ENCODING 218
SWIDTH 263 0
DWIDTH 3 0
BBX 0 0 0 0
BITMAP
ENDCHAR
STARTCHAR currency
ENCODING 219
SWIDTH 263 0
DWIDTH 3 0
BBX 0 0 0 0
BITMAP
ENDCHAR
STARTCHAR guilsinglleft
ENCODING 220
SWIDTH 263 0
DWIDTH 3 0
BBX 0 0 0 0
BITMAP
ENDCHAR
STARTCHAR guilsinglright
ENCODING 221
SWIDTH 263 0
DWIDTH 3 0
BBX 0 0 0 0
BITMAP
ENDCHAR
STARTCHAR fi
ENCODING 222
SWIDTH 263 0
DWIDTH 3 0
BBX 0 0 0 0
BITMAP
ENDCHAR
STARTCHAR fl
ENCODING 223
SWIDTH 263 0
DWIDTH 3 0
BBX 0 0 0 0
BITMAP
ENDCHAR
STARTCHAR daggerdbl
ENCODING 224
SWIDTH 263 0
DWIDTH 3 0
BBX 0 0 0 0
BITMAP
ENDCHAR
STARTCHAR periodcentered
ENCODING 225
SWIDTH 263 0
DWIDTH 3 0
BBX 0 0 0 0
BITMAP
ENDCHAR
STARTCHAR quotesinglbase
ENCODING 226
SWIDTH 263 0
DWIDTH 3 0
BBX 0 0 0 0
BITMAP
ENDCHAR
STARTCHAR quotedblbase
ENCODING 227
SWIDTH 263 0
DWIDTH 3 0
BBX 0 0 0 0
BITMAP
ENDCHAR
STARTCHAR perthousand
ENCODING 228
SWIDTH 263 0
DWIDTH 3 0
BBX 0 0 0 0
BITMAP
ENDCHAR
STARTCHAR Acircumflex
ENCODING 229
SWIDTH 263 0
DWIDTH 3 0
BBX 0 0 0 0
BITMAP
ENDCHAR
STARTCHAR Ecircumflex
ENCODING 230
SWIDTH 263 0
DWIDTH 3 0
BBX 0 0 0 0
BITMAP
ENDCHAR
STARTCHAR Aacute
ENCODING 231
SWIDTH 263 0
DWIDTH 3 0
BBX 0 0 0 0
BITMAP
ENDCHAR
STARTCHAR Edieresis
ENCODING 232
SWIDTH 263 0
DWIDTH 3 0
BBX 0 0 0 0
BITMAP
ENDCHAR
STARTCHAR Egrave
ENCODING 233
SWIDTH 263 0
DWIDTH 3 0
BBX 0 0 0 0
BITMAP
ENDCHAR
STARTCHAR Iacute
ENCODING 234
SWIDTH 263 0
DWIDTH 3 0
BBX 0 0 0 0
BITMAP
ENDCHAR
STARTCHAR Icircumflex
ENCODING 235
SWIDTH 263 0
DWIDTH 3 0
BBX 0 0 0 0
BITMAP
ENDCHAR
STARTCHAR Idieresis
ENCODING 236
SWIDTH 263 0
DWIDTH 3 0
BBX 0 0 0 0
BITMAP
ENDCHAR
STARTCHAR Igrave
ENCODING 237
SWIDTH 263 0
DWIDTH 3 0
BBX 0 0 0 0
BITMAP
ENDCHAR
STARTCHAR Oacute
ENCODING 238
SWIDTH 263 0
DWIDTH 3 0
BBX 0 0 0 0
BITMAP
ENDCHAR
STARTCHAR Ocircumflex
ENCODING 239
SWIDTH 263 0
DWIDTH 3 0
BBX 0 0 0 0
BITMAP
ENDCHAR
STARTCHAR apple
ENCODING 240
SWIDTH 263 0
DWIDTH 3 0
BBX 0 0 0 0
BITMAP
ENDCHAR
STARTCHAR Ograve
ENCODING 241
SWIDTH 263 0
DWIDTH 3 0
BBX 0 0 0 0
BITMAP
ENDCHAR
STARTCHAR Uacute
ENCODING 242
SWIDTH 263 0
DWIDTH 3 0
BBX 0 0 0 0
BITMAP
ENDCHAR
STARTCHAR Ucircumflex
ENCODING 243
SWIDTH 263 0
DWIDTH 3 0
BBX 0 0 0 0
BITMAP
ENDCHAR
STARTCHAR Ugrave
ENCODING 244
SWIDTH 263 0
DWIDTH 3 0
BBX 0 0 0 0
BITMAP
ENDCHAR
STARTCHAR dotlessi
ENCODING 245
SWIDTH 263 0
DWIDTH 3 0
BBX 0 0 0 0
BITMAP
ENDCHAR
STARTCHAR circumflex
ENCODING 246
SWIDTH 263 0
DWIDTH 3 0
BBX 0 0 0 0
BITMAP
ENDCHAR
STARTCHAR CurlyQuote
ENCODING 247
SWIDTH 600 0
DWIDTH 7 0
BBX 3 2 2 6
BITMAP
60
80
ENDCHAR
STARTCHAR CurlyDblQuote
ENCODING 248
SWIDTH 600 0
DWIDTH 7 0
BBX 5 2 1 6
BITMAP
78
a0
ENDCHAR
STARTCHAR CurlyBackQuote
ENCODING 249
SWIDTH 600 0
DWIDTH 7 0
BBX 3 2 2 6
BITMAP
20
c0
ENDCHAR
STARTCHAR CurlyDblBackQuote
ENCODING 250
SWIDTH 600 0
DWIDTH 7 0
BBX 5 2 1 6
BITMAP
28
f0
ENDCHAR
STARTCHAR StrikeCircle
ENCODING 251
SWIDTH 600 0
DWIDTH 6 0
BBX 7 7 0 0
BITMAP
38
44
82
82
82
44
38
ENDCHAR
STARTCHAR StrikeSquare
ENCODING 252
SWIDTH 600 0
DWIDTH 6 0
BBX 7 7 0 0
BITMAP
fe
82
82
82
82
82
fe
ENDCHAR
STARTCHAR StrikeTriangle
ENCODING 253
SWIDTH 600 0
DWIDTH 6 0
BBX 7 7 0 0
BITMAP
10
10
28
28
44
44
fe
ENDCHAR
STARTCHAR MathLogo1
ENCODING 254
SWIDTH 2776 0
DWIDTH 29 0
BBX 29 7 0 0
BITMAP
21800000
3117fb78
3334d248
37311270
55312250
49492248
cbdf76f0
ENDCHAR
STARTCHAR MathLogo2
ENCODING 255
SWIDTH 2981 0
DWIDTH 31 0
BBX 29 6 0 0
BITMAP
23276728
2669a8a8
36613050
5ae25070
52925190
d7b7efb8
ENDCHAR
ENDFONT
